<?xml version="1.0" encoding="utf-8"?>
<!-- Generator: Adobe Illustrator 23.0.6, SVG Export Plug-In . SVG Version: 6.00 Build 0)  -->
<svg version="1.1" id="Capa_1" xmlns="http://www.w3.org/2000/svg" xmlns:xlink="http://www.w3.org/1999/xlink" x="0px" y="0px"
	 viewBox="0 0 3000 3000" enable-background="new 0 0 3000 3000" xml:space="preserve">
<polygon fill="none" stroke="#FFFFFF" stroke-width="50" stroke-miterlimit="10" points="232.9,769.2 232.9,2231.8 1499.5,2963 
	2766.1,2231.8 2766.1,769.2 1499.5,38 "/>
<line fill="none" stroke="#FFFFFF" stroke-width="50" stroke-miterlimit="10" x1="233" y1="769" x2="563" y2="1566"/>
<line fill="none" stroke="#FFFFFF" stroke-width="50" stroke-miterlimit="10" x1="233" y1="2232" x2="563" y2="1566"/>
<line fill="none" stroke="#FFFFFF" stroke-width="50" stroke-miterlimit="10" x1="1499" y1="2963" x2="563" y2="1566"/>
<line fill="none" stroke="#FFFFFF" stroke-width="50" stroke-miterlimit="10" x1="1471" y1="54" x2="563" y2="1566"/>
<line fill="none" stroke="#FFFFFF" stroke-width="50" stroke-miterlimit="10" x1="2766" y1="2232" x2="2359" y2="1168"/>
<line fill="none" stroke="#FFFFFF" stroke-width="50" stroke-miterlimit="10" x1="2766" y1="769" x2="2359" y2="1168"/>
<line fill="none" stroke="#FFFFFF" stroke-width="50" stroke-miterlimit="10" x1="563" y1="1566" x2="2359" y2="1168"/>
<line fill="none" stroke="#FFFFFF" stroke-width="50" stroke-miterlimit="10" x1="1528" y1="54" x2="2359" y2="1168"/>
<line fill="none" stroke="#FFFFFF" stroke-width="50" stroke-miterlimit="10" x1="2766" y1="2232" x2="1944" y2="2265"/>
<line fill="none" stroke="#FFFFFF" stroke-width="50" stroke-miterlimit="10" x1="1499" y1="2963" x2="1944" y2="2265"/>
<line fill="none" stroke="#FFFFFF" stroke-width="50" stroke-miterlimit="10" x1="2359" y1="1168" x2="1944" y2="2265"/>
<line fill="none" stroke="#FFFFFF" stroke-width="50" stroke-miterlimit="10" x1="563" y1="1566" x2="1944" y2="2265"/>
</svg>
